<svg xmlns="http://www.w3.org/2000/svg" viewBox="0 0 27.759 27.316"><defs><style>.a{opacity:0.25;}.b,.c{fill:#bbc8d2;}.c,.d{stroke:#2d4250;stroke-width:1.5px;}.d,.f{fill:none;}.e{stroke:none;}</style></defs><g class="a" transform="translate(-1615.241 -387.684)"><path class="b" d="M13.867,2A11.867,11.867,0,1,0,25.734,13.867,11.871,11.871,0,0,0,13.867,2Zm0,3.56a3.56,3.56,0,1,1-3.56,3.56A3.555,3.555,0,0,1,13.867,5.56Zm0,16.851a8.545,8.545,0,0,1-7.12-3.821c.036-2.361,4.747-3.655,7.12-3.655s7.084,1.293,7.12,3.655A8.545,8.545,0,0,1,13.867,22.411Z" transform="translate(1613.241 385.684)"/><g class="c" transform="translate(1628 400)"><circle class="e" cx="7.5" cy="7.5" r="7.5"/><circle class="f" cx="7.5" cy="7.5" r="6.75"/></g><g transform="translate(1632 404)"><line class="d" y2="7.415" transform="translate(3.707)"/><line class="d" x1="7.415" transform="translate(0 3.707)"/></g></g></svg>
