<svg xmlns="http://www.w3.org/2000/svg" viewBox="0 0 22.943 22.693">
	<defs>
		<style>.a,.b{fill:#fff;}.b{stroke:#fff;stroke-width:0.6px;}</style>
	</defs>
	<g transform="translate(0 3.196)">
		<path class="a" d="M21.653,17.729,18.41,14.507a1.091,1.091,0,0,0-1.519,0l-1.026,1.026a1.363,1.363,0,0,1-1.93,0l-5.07-5.07a1.363,1.363,0,0,1,0-1.93L9.891,7.507a1.091,1.091,0,0,0,0-1.519L6.668,2.745A1.062,1.062,0,0,0,5.313,2.6a5.477,5.477,0,0,0-.924.78,6.591,6.591,0,0,0,0,9.34l7.266,7.266a6.57,6.57,0,0,0,4.68,1.93A6.489,6.489,0,0,0,21,19.987a6.639,6.639,0,0,0,.78-.924A1.058,1.058,0,0,0,21.653,17.729Z" transform="translate(-2.45 -2.421)" />
		<g transform="translate(9.202 1.638) rotate(-45)">
			<path class="b" d="M6.127,2.5,3.738.109A.373.373,0,0,0,3.21.637L4.962,2.389H.373a.373.373,0,0,0,0,.747H4.962L3.21,4.887a.373.373,0,0,0,.528.528L6.127,3.026A.373.373,0,0,0,6.127,2.5Z" />
		</g>
		<g transform="translate(22.519 6.134) rotate(135)">
			<path class="b" d="M6.127,2.5,3.738.109A.373.373,0,0,0,3.21.637L4.962,2.389H.373a.373.373,0,0,0,0,.747H4.962L3.21,4.887a.373.373,0,0,0,.528.528L6.127,3.026A.373.373,0,0,0,6.127,2.5Z" />
		</g>
	</g>
</svg>
