<svg xmlns="http://www.w3.org/2000/svg" viewBox="0 0 22 22"><defs><style>.a{fill:#5daae0;}.b{fill:none;}</style></defs><path class="a" d="M16.5,5.545V16a3.83,3.83,0,0,1-4,3.636A3.83,3.83,0,0,1,8.5,16V4.636A2.4,2.4,0,0,1,11,2.364a2.4,2.4,0,0,1,2.5,2.273v9.545a1,1,0,0,1-2,0V5.545H10v8.636a2.4,2.4,0,0,0,2.5,2.273A2.4,2.4,0,0,0,15,14.182V4.636A3.83,3.83,0,0,0,11,1,3.83,3.83,0,0,0,7,4.636V16a5.265,5.265,0,0,0,5.5,5A5.265,5.265,0,0,0,18,16V5.545Z" transform="translate(-1.077)"/><path class="b" d="M0,0H22V22H0Z"/></svg>
