<svg xmlns="http://www.w3.org/2000/svg" viewBox="0 0 51.199 51.2"><defs><style>.a{fill:none;}.b{fill:#fff;}</style></defs><g transform="translate(0.001)"><path class="a" d="M0,0H51.2V51.2H0Z"/><path class="b" d="M39.288,29.411a24.412,24.412,0,0,1-7.531-1.195,2.085,2.085,0,0,0-2.155.512l-3.349,4.2a32.391,32.391,0,0,1-14.7-14.571l4.16-3.541a2.177,2.177,0,0,0,.512-2.176,23.792,23.792,0,0,1-1.195-7.531A2.131,2.131,0,0,0,12.92,3H5.539C4.387,3,3,3.512,3,5.112A36.591,36.591,0,0,0,39.288,41.4,2.239,2.239,0,0,0,41.4,38.883v-7.36a2.131,2.131,0,0,0-2.112-2.112Z" transform="translate(3.4 3.4)"/></g></svg>