<svg xmlns="http://www.w3.org/2000/svg" viewBox="0 0 51.199 51.2"><defs><style>.a{fill:none;}.b{fill:#fff;}</style></defs><g transform="translate(0.001 0)"><path class="a" d="M0,0H51.2V51.2H0Z"/><path class="b" d="M25.6,11.267A31.81,31.81,0,0,0,15.787,12.8v6.613a2.149,2.149,0,0,1-1.195,1.92,24.557,24.557,0,0,0-5.675,3.947,2.1,2.1,0,0,1-1.493.6,2.127,2.127,0,0,1-1.515-.619L.619,19.971A2.04,2.04,0,0,1,0,18.477a2.127,2.127,0,0,1,.619-1.515,36.3,36.3,0,0,1,49.963,0,2.163,2.163,0,0,1,0,3.029l-5.291,5.291a2.127,2.127,0,0,1-1.515.619,2.189,2.189,0,0,1-1.493-.6,24.043,24.043,0,0,0-5.7-3.947,2.125,2.125,0,0,1-1.195-1.92V12.824A30.967,30.967,0,0,0,25.6,11.267Z" transform="translate(0 7.933)"/></g></svg>