<svg xmlns="http://www.w3.org/2000/svg" viewBox="0 0 45 45"><defs><style>.a{fill:#3c637e;}.b{fill:#fff;}</style></defs><g transform="translate(-1516 -25)"><circle class="a" cx="22.5" cy="22.5" r="22.5" transform="translate(1516 25)"/><g transform="translate(1529.318 37.316)"><path class="b" d="M21.653,17.729,18.41,14.507a1.091,1.091,0,0,0-1.519,0l-1.026,1.026a1.363,1.363,0,0,1-1.93,0l-5.07-5.07a1.363,1.363,0,0,1,0-1.93L9.891,7.507a1.091,1.091,0,0,0,0-1.519L6.668,2.745A1.062,1.062,0,0,0,5.313,2.6a5.477,5.477,0,0,0-.924.78,6.591,6.591,0,0,0,0,9.34l7.266,7.266a6.57,6.57,0,0,0,4.68,1.93A6.489,6.489,0,0,0,21,19.987a6.639,6.639,0,0,0,.78-.924A1.058,1.058,0,0,0,21.653,17.729Z" transform="translate(-2.45 -2.421)"/></g></g></svg>