<svg xmlns="http://www.w3.org/2000/svg" viewBox="0 0 36 36"><defs><style>.a{fill:#2d4250;}.b{fill:#5daae0;}.c{fill:none;}</style></defs><g transform="translate(0 0)"><path class="a" d="M18,0A18,18,0,1,1,0,18,18,18,0,0,1,18,0Z"/></g><g transform="translate(0 0)"><path class="b" d="M19.1,1.3a18,18,0,1,0,18,18A18,18,0,0,0,19.1,1.3Zm0,32.945A14.963,14.963,0,1,1,34.082,19.3,14.995,14.995,0,0,1,19.1,34.245Z" transform="translate(-1.1 -1.3)"/><g transform="translate(8 8)"><path class="b" d="M17,4H3.667A1.664,1.664,0,0,0,2.008,5.667L2,15.667a1.672,1.672,0,0,0,1.667,1.667H17a1.672,1.672,0,0,0,1.667-1.667v-10A1.672,1.672,0,0,0,17,4Zm0,3.333L10.333,11.5,3.667,7.333V5.667l6.667,4.167L17,5.667Z" transform="translate(-0.333 -0.667)"/><path class="c" d="M0,0H20V20H0Z"/></g></g></svg>