<svg xmlns="http://www.w3.org/2000/svg" viewBox="0 0 14.599 14.663">
	<defs>
		<style>.a{fill:#5daae0;stroke:#5daae0;stroke-width:0.5px;}</style>
	</defs>
	<path class="a" d="M12.214,35.849a1.479,1.479,0,0,0-1.072-.492,1.529,1.529,0,0,0-1.085.489l-1,1c-.082-.044-.165-.086-.244-.127-.114-.057-.222-.111-.314-.168a10.9,10.9,0,0,1-2.611-2.38,6.429,6.429,0,0,1-.857-1.352c.26-.238.5-.485.736-.723.089-.089.178-.181.267-.27a1.456,1.456,0,0,0,0-2.2l-.866-.866c-.1-.1-.2-.2-.3-.3-.19-.2-.39-.4-.6-.59a1.5,1.5,0,0,0-1.063-.466,1.554,1.554,0,0,0-1.079.466l-.006.006L1.046,28.967a2.321,2.321,0,0,0-.688,1.475A5.562,5.562,0,0,0,.764,32.8a13.661,13.661,0,0,0,2.427,4.048,14.93,14.93,0,0,0,4.972,3.893,7.746,7.746,0,0,0,2.792.825c.067,0,.136.006.2.006a2.391,2.391,0,0,0,1.831-.787c0-.006.01-.01.013-.016a7.214,7.214,0,0,1,.555-.574c.136-.13.276-.267.412-.409a1.583,1.583,0,0,0,.479-1.1,1.525,1.525,0,0,0-.489-1.088Zm1.136,3.341s0,0,0,0c-.124.133-.251.254-.387.387a8.343,8.343,0,0,0-.612.635,1.529,1.529,0,0,1-1.193.5c-.048,0-.1,0-.146,0a6.881,6.881,0,0,1-2.475-.742A14.093,14.093,0,0,1,3.854,36.3,12.881,12.881,0,0,1,1.57,32.5a4.53,4.53,0,0,1-.355-1.986,1.456,1.456,0,0,1,.438-.942l1.082-1.082a.721.721,0,0,1,.482-.225.679.679,0,0,1,.463.222l.01.01c.194.181.378.368.571.568.1.1.2.2.3.308l.866.866a.606.606,0,0,1,0,.984c-.092.092-.181.184-.273.273-.267.273-.52.527-.8.774-.006.006-.013.01-.016.016a.647.647,0,0,0-.165.72l.01.029A6.954,6.954,0,0,0,5.212,34.7l0,0A11.645,11.645,0,0,0,8.032,37.27a4.33,4.33,0,0,0,.39.213c.114.057.222.111.314.168.013.006.025.016.038.022a.688.688,0,0,0,.314.079.678.678,0,0,0,.482-.219l1.085-1.085a.718.718,0,0,1,.479-.238.646.646,0,0,1,.457.232l.006.006L13.347,38.2A.627.627,0,0,1,13.35,39.189Z" transform="translate(-0.095 -27.156)" />
</svg>
