<svg xmlns="http://www.w3.org/2000/svg" viewBox="0 0 32 32"><defs><style>.a{fill:none;}.b{fill:rgba(255,255,255,0.65);}</style></defs><path class="a" d="M0,0H32V32H0Z"/><path class="b" d="M12.333,22.667A2.667,2.667,0,1,1,9.667,20,2.675,2.675,0,0,1,12.333,22.667ZM9.667,12a2.667,2.667,0,1,0,2.667,2.667A2.675,2.675,0,0,0,9.667,12Zm0-8a2.667,2.667,0,1,0,2.667,2.667A2.675,2.675,0,0,0,9.667,4Zm8,5.333A2.667,2.667,0,1,0,15,6.667,2.675,2.675,0,0,0,17.667,9.333Zm0,2.667a2.667,2.667,0,1,0,2.667,2.667A2.675,2.675,0,0,0,17.667,12Zm0,8a2.667,2.667,0,1,0,2.667,2.667A2.675,2.675,0,0,0,17.667,20Z" transform="translate(2.333 1.333)"/></svg>