<svg xmlns="http://www.w3.org/2000/svg" viewBox="0 0 46.004 46.005">
	<defs>
		<style>.a{fill:#fff;}.b{fill:#f44;}</style>
	</defs>
	<g transform="translate(-1.208 -1.008)">
		<circle class="a" cx="18.5" cy="18.5" r="18.5" transform="translate(5 5)" />
		<path class="b" d="M-14.631,20.579a23,23,0,0,1-4.527-32.211,23,23,0,0,1,32.21-4.527,23,23,0,0,1,4.527,32.211A22.964,22.964,0,0,1-.807,25.213,22.9,22.9,0,0,1-14.631,20.579Zm2.866-22.324c-3.461,1.768-1.729,8.337-1.7,8.3L-6.682,5.4s-.737-3.808.312-4.5c0,0,3.9-1.559,10.249-.26,1.18.238.528,4.478.528,4.478l6.856.79s1.091-6.156-1.7-7.787A21.532,21.532,0,0,0-.821-4.421,24.12,24.12,0,0,0-11.766-1.744Z" transform="translate(25 21.8)" />
	</g>
</svg>
