<svg xmlns="http://www.w3.org/2000/svg" viewBox="0 0 178.471 37.39"><defs><style>.a,.b{fill:#fff;}.a{fill-rule:evenodd;}</style></defs><path class="a" d="M61.936,18.243a12.334,12.334,0,0,1,3.39-1.082c3.029-.361,6.2,1.154,6.347,5.193s0,7,0,10.459c0,.721-.216,1.226-1.01,1.3s-1.154-.5-1.226-1.3V22.787c.072-2.452-1.587-3.751-3.967-3.607a6.275,6.275,0,0,0-2.957,1.01,1.082,1.082,0,0,0-.577,1.082V32.164a4.4,4.4,0,0,1-.072,1.01c-.216.649-.577,1.01-1.226.938s-.938-.5-.938-1.226V12.04c0-1.082.289-1.37,1.082-1.443s1.154.361,1.154,1.443v6.2Z" transform="translate(-18.009 -3.744)"/><path class="a" d="M120,18.155a14.57,14.57,0,0,1,2.308-.793,6.131,6.131,0,0,1,3.607,0,4.977,4.977,0,0,1,3.679,4.9c.072,3.534,0,7.069.072,10.675a1.082,1.082,0,0,1-.938,1.154,1.154,1.154,0,0,1-1.3-1.01,2.884,2.884,0,0,1,0-.793V22.7c0-2.669-2.092-3.751-4.328-3.534l-1.01.289c-1.948.5-2.236.866-2.236,2.885V32.22a3.174,3.174,0,0,1-.144,1.154,1.028,1.028,0,0,1-2.02-.361V11.879c0-1.01.5-1.515,1.37-1.3s.793.866.793,1.443c.072,1.8,0,3.534.072,5.266,0,.289-.144.577.072.866" transform="translate(-34.168 -3.728)"/><path class="a" d="M223.973,27.9v6.636a1.443,1.443,0,0,1-.938,1.515c-2.525.793-5.121,1.3-7.718.361a4.761,4.761,0,0,1-3.318-4.4V20.977a1.062,1.062,0,0,1,2.092-.289,2.813,2.813,0,0,1,.144,1.082c0,3.029.072,6.059,0,9.016s2.02,4.328,4.688,4.039l2.092-.361c.577-.072.793-.361.793-.938-.072-3.9-.072-7.79-.072-11.685a3.607,3.607,0,0,1,.144-1.226,1.154,1.154,0,0,1,1.226-.721,1.01,1.01,0,0,1,.866,1.082V27.9" transform="translate(-60.453 -6.334)"/><path class="a" d="M240.376,19.9a9.882,9.882,0,0,1,3.534.793c.577.216,1.154.577.793,1.37s-.866.721-1.515.5a7.9,7.9,0,0,0-4.184-.5c-1.515.433-1.948,1.154-1.948,2.164a2.164,2.164,0,0,0,1.515,2.164l4.039,1.8a4.256,4.256,0,0,1,2.6,4.833,4.761,4.761,0,0,1-3.9,3.751,10.242,10.242,0,0,1-5.7-.793,1.082,1.082,0,0,1-.649-1.443.866.866,0,0,1,1.3-.433,19.187,19.187,0,0,0,2.741.721c1.731.289,3.534-.5,3.967-1.948a2.308,2.308,0,0,0-1.01-2.6,26.858,26.858,0,0,0-4.111-1.948c-2.741-1.154-3.462-3.246-2.669-5.7s2.6-2.813,5.193-2.741" transform="translate(-66.83 -6.336)"/><path class="a" d="M141.572,29.49c0-1.8,0-3.607-.072-5.41-.072-3.174,2.452-4.761,5.338-4.4l1.226.144c.721.216,1.154.721,1.01,1.37s-.793.793-1.443.721a5.058,5.058,0,0,0-2.092-.144,2.511,2.511,0,0,0-1.8,2.236V34.756a2.813,2.813,0,0,1-.144,1.082,1.082,1.082,0,0,1-2.092-.289c.072-2.02.072-4.039.072-6.059" transform="translate(-40.805 -6.264)"/><path class="a" d="M83.6,28.064V20.923c0-.721.289-1.154.938-1.226a1.122,1.122,0,0,1,1.226,1.01,3.535,3.535,0,0,1,.072.866v13.2a2.452,2.452,0,0,1-.144,1.01,1.01,1.01,0,0,1-1.154.866c-.649-.072-.938-.433-.938-1.154V28.064" transform="translate(-24.669 -6.281)"/><path class="a" d="M201.872,28.263c0-2.38,0-4.761-.072-7.141,0-.721.289-1.154,1.01-1.226a1.01,1.01,0,0,1,1.154,1.01,3.535,3.535,0,0,1,.072.866v13.2a2.813,2.813,0,0,1-.144,1.082,1.082,1.082,0,0,1-1.082.866.938.938,0,0,1-.938-1.154v-7.5" transform="translate(-57.611 -6.335)"/><path class="b" d="M105.418,30.011v-7.79a1.587,1.587,0,0,0-1.226-1.8,15.8,15.8,0,0,0-6.348-.649A5.41,5.41,0,0,0,93.3,24.746V31.6a5.121,5.121,0,0,0,3.534,4.688,7.213,7.213,0,0,0,5.843-.5c.433-.289.577-.216.577.289s0,1.443-.072,2.236a3.318,3.318,0,0,1-3.318,3.318,8.584,8.584,0,0,1-4.039-.721c-.577-.216-1.226-.289-1.587.433s.144,1.154.793,1.443a13.056,13.056,0,0,0,2.236.649,7.934,7.934,0,0,0,3.9,0c2.813-.721,4.184-2.813,4.256-5.626S105.418,32.608,105.418,30.011Zm-2.741,3.534a5.418,5.418,0,0,1-5.41.649,3.029,3.029,0,0,1-1.731-2.813V25.467a3.392,3.392,0,0,1,3.534-3.751,11.613,11.613,0,0,1,3.534.433.649.649,0,0,1,.577.793v4.9c0,1.515,0,3.029.072,4.544a1.082,1.082,0,0,1-.577,1.154Z" transform="translate(-27.373 -6.28)"/><path class="b" d="M189.814,12.2c0-.938-.361-1.37-1.154-1.3s-1.01.361-1.01,1.3-.072,3.751,0,5.626c0,.721-.216.793-.793.433a5.482,5.482,0,0,0-2.525-.793c-3.174-.433-6.42,1.226-6.564,5.121-.144,2.236-.072,4.544,0,6.78a5.121,5.121,0,0,0,3.823,4.761,13.056,13.056,0,0,0,6.852-.433c1.226-.361,1.37-.721,1.37-2.02V12.2Zm-2.669,19.692a9.1,9.1,0,0,1-4.616.289,3.246,3.246,0,0,1-2.6-3.246V23.087a3.534,3.534,0,0,1,4.472-3.607l.938.144c2.02.649,2.308,1.01,2.308,3.1v8.439C187.65,31.526,187.578,31.815,187.145,31.887Z" transform="translate(-50.89 -3.828)"/><path class="b" d="M166.444,24.074a4.039,4.039,0,0,0-1.731-3.318c-2.813-1.731-5.554-1.3-8.367-.072-.577.289-1.154.649-.793,1.443s.866.866,1.659.433a10.82,10.82,0,0,1,2.6-.793c2.741-.577,4.472.793,4.472,3.534,0,1.515.144,1.3-1.37,1.3a18.033,18.033,0,0,0-5.554.649A4.328,4.328,0,0,0,154.4,31.5a4.08,4.08,0,0,0,2.452,4.328c1.948.866,5.915.938,8.872-.072.577-.216.721-.649.721-1.3V29.267C166.444,27.536,166.516,25.805,166.444,24.074Zm-2.164,7.357V32.8c0,1.3,0,1.37-1.37,1.587a9.882,9.882,0,0,1-4.111,0,2.669,2.669,0,0,1-2.236-2.885,3.1,3.1,0,0,1,2.741-2.669c1.443-.216,2.885-.144,4.328-.216a.577.577,0,0,1,.649.649C164.207,29.989,164.28,30.71,164.28,31.431Z" transform="translate(-44.399 -6.258)"/><path class="b" d="M204.462,13.631a1.731,1.731,0,1,1-1.731-1.731,1.731,1.731,0,0,1,1.731,1.731" transform="translate(-57.388 -4.11)"/><path class="b" d="M86.176,13.658a1.731,1.731,0,1,1-3.39,0,1.7,1.7,0,0,1,3.39,0" transform="translate(-24.432 -4.137)"/><path class="b" d="M38.843,41.223c.649-.721,1.443-8.944-.649-12.623A15.875,15.875,0,0,1,24.2,38.482c2.38,2.885,7.213,4.616,11.324,5.049a17.456,17.456,0,0,0,3.318-2.308Z" transform="translate(-8.115 -8.764)"/><path class="b" d="M2.492,27.074C2.059,24.91,8.623,16.4,13.672,15.1c-.866,1.875-2.525,6.131-2.308,9.521.5,8.8,8.151,16.229,16.013,16.013C19.587,44.6,5.233,40.778,2.492,27.074Z" transform="translate(-2.059 -5.002)"/><path class="b" d="M17.769,9.034c9.449,0,17.167,8.223,17.167,18.321a30.3,30.3,0,0,1-.433,4.4,17.67,17.67,0,0,0,4.472-12.406A18.393,18.393,0,0,0,20.51,1.1C10.339,1.1,2.044,8.6,1.9,19.926,2.91,17.618,7.526,9.034,17.769,9.034" transform="translate(-1.9 -1.1)"/></svg>
