<svg xmlns="http://www.w3.org/2000/svg" viewBox="0 0 24.583 24.583"><defs><style>.a{fill:none;}.b{fill:#fff;}</style></defs><path class="a" d="M0,0H24.583V24.583H0Z"/><path class="b" d="M12.194,19.437a2.049,2.049,0,1,0,2.049,2.049A2.055,2.055,0,0,0,12.194,19.437ZM6.049,1A2.049,2.049,0,1,0,8.1,3.049,2.055,2.055,0,0,0,6.049,1Zm0,6.146A2.049,2.049,0,1,0,8.1,9.194,2.055,2.055,0,0,0,6.049,7.146Zm0,6.146A2.049,2.049,0,1,0,8.1,15.34,2.055,2.055,0,0,0,6.049,13.291ZM18.34,5.1a2.049,2.049,0,1,0-2.049-2.049A2.055,2.055,0,0,0,18.34,5.1Zm-6.146,8.194a2.049,2.049,0,1,0,2.049,2.049A2.055,2.055,0,0,0,12.194,13.291Zm6.146,0a2.049,2.049,0,1,0,2.049,2.049A2.055,2.055,0,0,0,18.34,13.291Zm0-6.146a2.049,2.049,0,1,0,2.049,2.049A2.055,2.055,0,0,0,18.34,7.146Zm-6.146,0a2.049,2.049,0,1,0,2.049,2.049A2.055,2.055,0,0,0,12.194,7.146Zm0-6.146a2.049,2.049,0,1,0,2.049,2.049A2.055,2.055,0,0,0,12.194,1Z" transform="translate(0.097 0.024)"/></svg>