<svg xmlns="http://www.w3.org/2000/svg" viewBox="0 0 44 44"><defs><style>.a,.c{fill:none;}.a{stroke:#abb3b9;}.b{fill:#abb3b9;}.d{stroke:none;}</style></defs><g transform="translate(-1720 -440)"><g class="a" transform="translate(1720 440)"><circle class="d" cx="22" cy="22" r="22"/><circle class="c" cx="22" cy="22" r="21.5"/></g><g transform="translate(1730 450)"><path class="b" d="M18,16V11c0-3.07-1.64-5.64-4.5-6.32V4a1.5,1.5,0,0,0-3,0v.68C7.63,5.36,6,7.92,6,11v5L4,18v1H20V18Zm-5,0H11V14h2Zm0-4H11V8h2ZM12,22a2.006,2.006,0,0,0,2-2H10A2,2,0,0,0,12,22Z"/><path class="c" d="M0,0H24V24H0Z"/></g></g></svg>