<svg xmlns="http://www.w3.org/2000/svg" viewBox="0 0 32.5 28.746"><defs><style>.a{fill:#b6bdc2;stroke:#2d4250;}.a,.b{stroke-width:0.5px;}.b{fill:rgba(255,255,255,0.65);stroke:#b6bdc2;}</style></defs><g transform="translate(0.25 -124.838)"><g transform="translate(0 138.667)"><path class="a" d="M24.667,138.667a7.336,7.336,0,0,0-5.66,12h-6.02a7.331,7.331,0,1,0-5.653,2.667H24.667a7.333,7.333,0,1,0,0-14.667Zm-17.333,12A4.667,4.667,0,1,1,12,146,4.663,4.663,0,0,1,7.333,150.667Zm17.333,0A4.667,4.667,0,1,1,29.333,146,4.663,4.663,0,0,1,24.667,150.667Z" transform="translate(0 -138.667)"/><path class="b" d="M10.139,5V6.847h6.087L8.95,14.124l1.3,1.3L17.529,8.15v6.087h1.847V5Z" transform="translate(-0.903 -3.31) rotate(-45)"/></g></g></svg>