<svg xmlns="http://www.w3.org/2000/svg" xmlns:xlink="http://www.w3.org/1999/xlink" width="36" height="36" viewBox="0 0 36 36"><defs><style>.a{fill:none;}.b{clip-path:url(#a);}.c{fill:rgba(255,255,255,0.1);}.d{fill:rgba(93,170,224,0.2);}</style><clipPath id="a"><rect class="a" width="36" height="36"/></clipPath></defs><g class="b"><path class="a" d="M0,0H36V36H0ZM0,0H36V36H0Z"/><path class="c" d="M15,0A15,15,0,1,1,0,15,15,15,0,0,1,15,0Z" transform="translate(3 3)"/><path class="d" d="M17,2A15,15,0,1,0,32,17,15.005,15.005,0,0,0,17,2Zm0,27A12,12,0,1,1,29,17,12,12,0,0,1,17,29Z" transform="translate(1 1)"/></g></svg>