<svg xmlns="http://www.w3.org/2000/svg" viewBox="0 0 48 48"><defs><style>.a{fill:none;}.b{fill:#273d49;}</style></defs><path class="a" d="M0,0H48V48H0Z"/><path class="b" d="M37.02,27.76a22.886,22.886,0,0,1-7.06-1.12,1.955,1.955,0,0,0-2.02.48L24.8,31.06A30.367,30.367,0,0,1,11.02,17.4l3.9-3.32a2.041,2.041,0,0,0,.48-2.04,22.305,22.305,0,0,1-1.12-7.06A2,2,0,0,0,12.3,3H5.38C4.3,3,3,3.48,3,4.98A34.3,34.3,0,0,0,37.02,39,2.1,2.1,0,0,0,39,36.64v-6.9a2,2,0,0,0-1.98-1.98Z" transform="translate(3 3)"/><rect class="b" width="20" height="4" transform="translate(22 8)"/><rect class="b" width="20" height="4" transform="translate(22 14)"/><rect class="b" width="20" height="4" transform="translate(22 20)"/></svg>
