<svg xmlns="http://www.w3.org/2000/svg" width="22.069" height="22.043" viewBox="0 0 22.069 22.043"><defs><style>.a{fill:none;}.b,.c{fill:#5daae0;}.b{opacity:0.32;}</style></defs><g transform="translate(-1813 -643)"><g transform="translate(1813 643)"><path class="a" d="M0,0H22V22H0Z"/><path class="b" d="M11.9,2V24a11.061,11.061,0,0,1,0-22Zm0,11.969V24a10.55,10.55,0,0,0,9.124-3.385C17.984,18.063,11.9,13.969,11.9,13.969Z" transform="translate(-2 -2)"/><path class="c" d="M14.133,2V12.589s5.584,3.885,8.277,6.1a10.378,10.378,0,0,0,1.59-6.8A11.048,11.048,0,0,0,14.133,2Z" transform="translate(-2 -2)"/></g></g></svg>