<svg xmlns="http://www.w3.org/2000/svg" width="28" height="28" viewBox="0 0 28 28"><defs><style>.a{fill:none;}.b{fill:rgba(255,255,255,0.1);}.c{fill:rgba(93,170,224,0.2);}.d{fill:#5daae0;}</style></defs><path class="a" d="M0,0H28V28H0ZM0,0H28V28H0Z"/><path class="b" d="M11,0A11,11,0,1,1,0,11,11,11,0,0,1,11,0Z" transform="translate(3 3)"/><path class="c" d="M13.667,2A11.667,11.667,0,1,0,25.333,13.667,11.671,11.671,0,0,0,13.667,2Zm0,21A9.333,9.333,0,1,1,23,13.667,9.331,9.331,0,0,1,13.667,23Z" transform="translate(0.333 0.333)"/><path class="d" d="M13,2A11,11,0,1,0,24,13,11,11,0,0,0,13,2ZM10.8,18.5,5.3,13l1.551-1.551L10.8,15.387l8.349-8.349L20.7,8.6Z" transform="translate(1 1)"/></svg>