<svg xmlns="http://www.w3.org/2000/svg" xmlns:xlink="http://www.w3.org/1999/xlink" width="28" height="28" viewBox="0 0 28 28"><defs><style>.a{fill:none;}.b{clip-path:url(#a);}.c{fill:rgba(255,255,255,0.1);}.d{fill:rgba(93,170,224,0.2);}</style><clipPath id="a"><rect class="a" width="28" height="28"/></clipPath></defs><g class="b"><path class="a" d="M0,0H28V28H0ZM0,0H28V28H0Z"/><path class="c" d="M11,0A11,11,0,1,1,0,11,11,11,0,0,1,11,0Z" transform="translate(3 3)"/><path class="d" d="M13.667,2A11.667,11.667,0,1,0,25.333,13.667,11.671,11.671,0,0,0,13.667,2Zm0,21A9.333,9.333,0,1,1,23,13.667,9.331,9.331,0,0,1,13.667,23Z" transform="translate(0.333 0.333)"/></g></svg>