<svg xmlns="http://www.w3.org/2000/svg" width="30" height="30" viewBox="0 0 30 30"><defs><style>.a{fill:#f44;}.b{fill:none;}.c{fill:#fff;}</style></defs><g transform="translate(-735 -60)"><circle class="a" cx="15" cy="15" r="15" transform="translate(735 60)"/><g transform="translate(740.133 65.133)"><path class="b" d="M19.734.008h0L0,0V19.734H19.734ZM0,0H19.734V19.734H0ZM0,0H19.734V19.734H0Z"/><path class="c" d="M19.082,7.719A12.771,12.771,0,0,0,7.447,4.249L9.519,6.321a10.4,10.4,0,0,1,7.918,3.042l1.645-1.645Zm-3.289,3.289A8.053,8.053,0,0,0,12.1,8.9l2.9,2.9ZM1.822,2.826,4.347,5.334A12.478,12.478,0,0,0,1,7.719L2.636,9.363A10.223,10.223,0,0,1,6.09,7.085L7.932,8.927a7.963,7.963,0,0,0-3.643,2.08v.008l1.636,1.636a5.791,5.791,0,0,1,4.046-1.694l5.813,5.805,1.044-1.036L2.883,1.79ZM7.578,14.3l2.467,2.467L12.512,14.3A3.484,3.484,0,0,0,7.578,14.3Z" transform="translate(-0.178 -0.318)"/></g></g></svg>