<svg xmlns="http://www.w3.org/2000/svg" viewBox="0 0 12.295 14.754"><defs><style>.a{fill:#fff;}</style></defs><g transform="translate(-42.667)"><g transform="translate(42.667)"><g transform="translate(0)"><path class="a" d="M46.663,0H43.589a.923.923,0,0,0-.922.922v12.91a.923.923,0,0,0,.922.922h3.074a.923.923,0,0,0,.922-.922V.922A.923.923,0,0,0,46.663,0Z" transform="translate(-42.667)"/></g></g><g transform="translate(50.044)"><path class="a" d="M302.663,0h-3.074a.923.923,0,0,0-.922.922v12.91a.923.923,0,0,0,.922.922h3.074a.923.923,0,0,0,.922-.922V.922A.923.923,0,0,0,302.663,0Z" transform="translate(-298.667)"/></g></g></svg>
